<?xml version="1.0" standalone="no"?>
<!DOCTYPE svg PUBLIC "-//W3C//DTD SVG 20010904//EN"
 "http://www.w3.org/TR/2001/REC-SVG-20010904/DTD/svg10.dtd">
<svg version="1.0" xmlns="http://www.w3.org/2000/svg"
 width="101.000000pt" height="101.000000pt" viewBox="0 0 101.000000 101.000000"
 preserveAspectRatio="xMidYMid meet">
<metadata>
Created by potrace 1.10, written by Peter Selinger 2001-2011
</metadata>
<g transform="translate(0.000000,101.000000) scale(0.100000,-0.100000)"
fill="#000000" stroke="none">
<path d="M70 775 l0 -145 70 0 c74 0 123 17 134 45 11 29 6 70 -10 94 -12 17
-13 26 -5 34 14 14 14 52 1 77 -13 25 -62 40 -131 40 l-59 0 0 -145z m115 60
c0 -13 -8 -21 -22 -23 -19 -3 -23 1 -23 23 0 22 4 26 23 23 14 -2 22 -10 22
-23z m12 -96 c18 -18 3 -39 -28 -39 -24 0 -29 4 -29 25 0 19 5 25 23 25 13 0
28 -5 34 -11z"/>
<path d="M760 775 l0 -145 35 0 c30 0 35 3 35 24 0 38 17 40 41 6 18 -24 30
-30 61 -30 21 0 38 2 38 5 0 3 -16 27 -35 54 -19 26 -35 52 -35 56 0 4 16 26
36 48 l35 42 -37 3 c-30 3 -43 -2 -70 -29 l-34 -33 0 72 0 72 -35 0 -35 0 0
-145z"/>
<path d="M338 825 c-53 -30 -23 -59 48 -48 27 4 34 2 34 -11 0 -12 -10 -16
-38 -16 -50 0 -82 -23 -82 -60 0 -16 7 -36 16 -44 18 -19 85 -21 102 -4 9 9
12 9 12 0 0 -7 15 -12 36 -12 l36 0 -4 80 c-2 65 -7 84 -24 101 -28 28 -99 35
-136 14z m86 -130 c-6 -16 -54 -21 -54 -7 0 15 12 22 36 22 17 0 22 -4 18 -15z"/>
<path d="M554 806 c-70 -70 -26 -175 74 -176 50 0 77 12 92 40 9 17 7 22 -17
31 -19 7 -35 7 -52 -1 -20 -9 -28 -8 -44 8 -16 16 -17 23 -8 41 12 21 45 29
55 12 6 -9 76 8 76 18 -1 12 -26 38 -47 49 -43 23 -92 15 -129 -22z"/>
<path d="M415 471 c-82 -77 -150 -145 -150 -151 0 -6 68 -74 150 -151 l150
-141 3 68 3 68 -78 78 -78 79 78 76 78 76 -3 69 -3 69 -150 -140z"/>
<path d="M608 466 c-82 -76 -148 -142 -148 -146 0 -8 285 -280 294 -280 3 0 6
31 6 69 l0 69 -76 71 -77 70 77 73 77 73 -3 70 -3 70 -147 -139z"/>
</g>
</svg>
