<?xml version="1.0" standalone="no"?>
<!DOCTYPE svg PUBLIC "-//W3C//DTD SVG 20010904//EN"
 "http://www.w3.org/TR/2001/REC-SVG-20010904/DTD/svg10.dtd">
<svg version="1.0" xmlns="http://www.w3.org/2000/svg"
 width="303.000000pt" height="303.000000pt" viewBox="0 0 303.000000 303.000000"
 preserveAspectRatio="xMidYMid meet">
<metadata>
Created by potrace 1.10, written by Peter Selinger 2001-2011
</metadata>
<g transform="translate(0.000000,303.000000) scale(0.100000,-0.100000)"
fill="#000000" stroke="none">
<path d="M2574 2657 c-54 -57 -133 -139 -174 -183 -183 -192 -366 -354 -402
-354 -7 0 -23 -11 -36 -25 -18 -19 -23 -33 -20 -67 3 -38 7 -45 39 -62 54 -29
82 -17 131 58 59 91 583 606 616 606 5 0 17 11 26 24 15 24 14 26 -23 65 -22
23 -44 41 -49 41 -5 0 -53 -46 -108 -103z"/>
<path d="M1686 2603 c-182 -3 -201 -5 -225 -24 -19 -15 -1261 -1250 -1261
-1254 0 -1 247 -250 548 -554 379 -383 553 -552 565 -550 37 8 1074 1038 1247
1238 11 14 24 36 28 50 4 14 7 224 7 466 0 423 -1 440 -19 443 -13 3 -61 -38
-163 -140 -184 -182 -203 -207 -203 -268 0 -83 -85 -174 -174 -186 -75 -11
-146 26 -192 98 -35 54 -34 158 1 210 40 59 74 74 230 103 22 5 345 326 345
343 0 33 -47 35 -734 25z m620 -64 c6 -10 -73 -91 -180 -186 -20 -17 -36 -35
-36 -41 0 -12 -49 -34 -61 -26 -6 3 -40 0 -77 -7 -62 -13 -72 -18 -129 -75
-57 -57 -62 -66 -68 -118 -24 -191 85 -326 263 -326 56 0 74 5 126 34 34 19
68 45 76 58 41 66 50 91 50 144 l0 56 88 92 c48 51 104 112 126 135 21 24 41
39 45 34 12 -13 -3 -775 -15 -796 -24 -42 -217 -238 -1035 -1052 -86 -85 -161
-155 -167 -155 -6 0 -17 6 -24 14 -7 7 -232 234 -501 504 -268 270 -487 492
-487 495 0 3 1154 1158 1206 1207 3 3 168 7 367 10 199 3 376 7 394 8 17 1 35
-3 39 -9z"/>
<path d="M1361 1891 c-44 -42 -81 -81 -81 -85 0 -4 10 -16 22 -26 22 -18 23
-17 47 6 13 13 28 24 33 24 11 0 46 -39 90 -97 36 -49 64 -55 90 -19 17 24 17
24 -52 92 -39 38 -70 72 -70 77 0 5 11 18 25 29 31 24 31 38 1 60 -23 17 -24
16 -105 -61z"/>
<path d="M1204 1761 c-35 -21 -74 -71 -74 -94 0 -21 46 -74 71 -82 12 -4 33 2
54 15 36 22 76 24 83 3 2 -7 -9 -18 -25 -25 -57 -26 -76 -54 -50 -76 18 -16
87 12 120 48 36 40 36 83 1 115 -33 30 -57 31 -113 4 -36 -17 -45 -18 -52 -7
-12 19 -6 30 27 48 20 11 29 24 29 41 0 31 -30 36 -71 10z"/>
<path d="M1804 1671 c-37 -23 -74 -72 -74 -99 0 -22 42 -68 71 -77 11 -4 34 2
54 15 36 22 76 24 82 3 3 -6 -9 -19 -25 -27 -42 -22 -62 -44 -56 -61 13 -33
94 -8 133 41 31 39 27 80 -10 115 -17 16 -35 29 -40 29 -5 0 -33 -12 -61 -26
-41 -21 -52 -23 -59 -12 -14 21 -11 27 19 42 38 20 54 40 46 60 -8 21 -42 20
-80 -3z"/>
<path d="M993 1554 c-29 -30 -53 -56 -53 -58 0 -1 36 -39 80 -85 44 -45 80
-86 80 -92 0 -22 36 -6 81 36 26 25 53 45 59 45 19 0 10 39 -12 55 -22 15 -25
14 -60 -25 -41 -44 -55 -49 -65 -23 -4 11 4 25 27 44 33 28 33 29 15 49 -25
27 -36 25 -60 -10 -22 -34 -48 -36 -53 -4 -2 14 8 28 32 45 37 25 45 46 24 67
-22 22 -42 12 -95 -44z"/>
<path d="M1588 1469 c-33 -19 -19 -48 57 -122 109 -104 98 -126 -29 -61 -94
48 -111 57 -129 72 -12 10 -20 7 -46 -17 -32 -30 -38 -45 -21 -56 6 -3 10 -14
10 -24 0 -10 6 -24 14 -30 8 -6 16 -22 19 -34 8 -31 30 -86 51 -126 l18 -33
24 23 c19 18 23 29 18 54 -4 25 0 38 18 58 20 22 31 25 60 21 28 -5 40 -1 64
20 68 62 142 124 155 128 12 4 11 10 -3 34 -21 35 -42 33 -75 -7 -22 -26 -63
-40 -63 -21 0 4 -18 27 -40 51 -22 24 -42 52 -45 62 -7 21 -30 24 -57 8z m-49
-210 c20 -7 31 -17 29 -27 -3 -17 -34 -39 -43 -31 -6 7 -25 69 -21 69 2 0 17
-5 35 -11z"/>
<path d="M890 1433 c-29 -11 -100 -75 -100 -90 0 -9 24 -39 53 -67 29 -28 67
-68 84 -90 37 -46 51 -43 106 20 49 54 55 105 17 135 -14 10 -33 19 -43 19
-11 0 -23 12 -30 29 -14 39 -51 57 -87 44z m37 -64 c8 -8 8 -18 1 -35 -14 -30
-29 -31 -46 -3 -21 34 17 66 45 38z m83 -84 c0 -37 -52 -61 -64 -29 -12 31 3
54 35 54 24 0 29 -4 29 -25z"/>
<path d="M1233 1165 c-29 -29 -53 -60 -53 -67 0 -8 15 -25 33 -38 31 -23 82
-77 125 -130 l20 -25 54 51 c29 28 60 53 68 56 18 6 5 35 -24 52 -14 9 -23 5
-44 -20 -34 -39 -61 -49 -69 -27 -4 11 4 25 27 44 33 28 33 29 15 49 -25 27
-36 25 -60 -10 -24 -35 -41 -38 -50 -9 -5 16 0 27 21 45 16 13 32 23 37 24 11
0 8 35 -5 48 -21 21 -42 12 -95 -43z"/>
<path d="M1114 992 c-49 -26 -114 -83 -114 -99 0 -8 29 -44 65 -79 36 -36 72
-76 81 -89 9 -14 22 -25 30 -25 18 0 96 85 111 122 25 58 -10 131 -82 169 -42
23 -51 23 -91 1z m89 -74 c31 -23 27 -94 -6 -109 -20 -9 -28 -6 -60 26 -20 20
-37 45 -37 56 0 35 68 52 103 27z"/>
</g>
</svg>
