<?xml version="1.0" standalone="no"?>
<!DOCTYPE svg PUBLIC "-//W3C//DTD SVG 20010904//EN"
 "http://www.w3.org/TR/2001/REC-SVG-20010904/DTD/svg10.dtd">
<svg version="1.0" xmlns="http://www.w3.org/2000/svg"
 width="101.000000pt" height="101.000000pt" viewBox="0 0 101.000000 101.000000"
 preserveAspectRatio="xMidYMid meet">
<metadata>
Created by potrace 1.10, written by Peter Selinger 2001-2011
</metadata>
<g transform="translate(0.000000,101.000000) scale(0.100000,-0.100000)"
fill="#000000" stroke="none">
<path d="M275 759 c-110 -82 -204 -159 -209 -170 -16 -33 8 -69 45 -69 26 0
68 27 208 132 96 72 180 131 186 131 6 0 91 -59 188 -131 188 -140 224 -156
247 -111 19 35 3 63 -65 112 l-65 47 0 60 c0 33 4 60 10 60 6 0 10 11 10 25 0
24 -2 25 -66 25 l-66 0 7 -46 c8 -54 12 -55 -95 28 -54 41 -84 58 -105 58 -23
0 -79 -37 -230 -151z"/>
<path d="M328 602 l-168 -127 0 -187 0 -188 195 0 195 0 0 165 0 165 85 0 85
0 0 -165 0 -165 65 0 65 0 0 188 0 187 -169 128 c-93 70 -172 127 -177 126 -5
0 -84 -57 -176 -127z m110 -264 l-3 -93 -72 -3 -73 -3 0 96 0 95 75 0 76 0 -3
-92z"/>
</g>
</svg>
