<?xml version="1.0" standalone="no"?>
<!DOCTYPE svg PUBLIC "-//W3C//DTD SVG 20010904//EN"
 "http://www.w3.org/TR/2001/REC-SVG-20010904/DTD/svg10.dtd">
<svg version="1.0" xmlns="http://www.w3.org/2000/svg"
 width="101.000000pt" height="101.000000pt" viewBox="0 0 101.000000 101.000000"
 preserveAspectRatio="xMidYMid meet">
<metadata>
Created by potrace 1.10, written by Peter Selinger 2001-2011
</metadata>
<g transform="translate(0.000000,101.000000) scale(0.100000,-0.100000)"
fill="#000000" stroke="none">
<path d="M495 947 c-3 -9 -7 -24 -10 -32 -8 -25 6 -75 21 -75 14 0 18 27 14
80 -2 32 -18 49 -25 27z"/>
<path d="M240 846 c0 -14 67 -76 82 -76 17 0 6 36 -19 62 -28 30 -63 37 -63
14z"/>
<path d="M707 832 c-24 -25 -37 -62 -21 -62 14 0 84 63 84 76 0 23 -35 16 -63
-14z"/>
<path d="M437 786 c-59 -22 -97 -57 -127 -121 -30 -63 -26 -115 20 -216 22
-49 44 -108 49 -131 12 -54 34 -70 91 -66 37 3 45 6 45 23 0 17 -7 20 -44 20
-43 0 -44 0 -55 45 -7 25 -27 78 -45 118 -18 41 -35 89 -38 107 -15 92 70 185
172 190 6 0 10 9 10 20 0 25 -27 29 -78 11z"/>
<path d="M554 756 c-8 -14 -25 -26 -37 -28 -14 -2 -23 -11 -25 -27 -4 -26 12
-41 45 -41 33 0 90 -60 98 -102 13 -70 -57 -158 -126 -158 -19 0 -30 -6 -34
-20 -9 -27 -1 -36 36 -44 18 -3 38 -15 46 -26 27 -39 81 -13 70 32 -9 35 37
79 74 71 24 -4 30 -1 41 22 11 25 10 29 -15 47 -37 27 -37 74 0 104 25 20 26
24 15 48 -10 24 -16 26 -45 21 -44 -9 -82 29 -73 72 6 25 3 31 -19 41 -34 16
-32 16 -51 -12z"/>
<path d="M458 608 c-2 -15 -11 -24 -25 -26 -24 -4 -31 -27 -10 -35 10 -3 10
-9 0 -26 -18 -30 -16 -39 10 -43 14 -2 23 -11 25 -25 4 -24 16 -30 27 -13 8
13 45 13 45 0 0 -5 7 -7 15 -4 8 4 15 15 15 25 0 10 5 20 10 20 6 1 14 2 19 3
19 2 22 15 10 34 -10 16 -10 23 0 36 11 13 9 17 -13 26 -16 6 -26 17 -26 30 0
23 -12 25 -43 9 -16 -9 -22 -9 -25 0 -7 20 -30 12 -34 -11z m80 -34 c26 -18
28 -50 5 -76 -21 -24 -48 -23 -73 2 -26 26 -25 36 5 65 28 29 33 30 63 9z"/>
<path d="M134 609 c-12 -20 12 -30 62 -27 37 2 50 7 52 21 3 14 -5 17 -52 17
-30 0 -58 -5 -62 -11z"/>
<path d="M765 610 c-13 -21 11 -31 61 -28 36 2 49 7 49 18 0 19 -99 27 -110
10z"/>
<path d="M398 219 c-6 -4 -9 -12 -6 -19 3 -10 34 -13 114 -13 93 0 109 2 112
16 2 10 -2 17 -10 18 -60 4 -202 3 -210 -2z"/>
<path d="M447 154 c-4 -4 -7 -13 -7 -21 0 -9 18 -13 66 -13 57 0 65 2 62 18
-2 13 -15 18 -58 20 -31 2 -59 0 -63 -4z"/>
<path d="M464 85 c-9 -21 -4 -25 42 -28 33 -2 39 1 39 18 0 16 -8 21 -38 23
-27 2 -39 -1 -43 -13z"/>
</g>
</svg>
