 <svg  version="1.0" xmlns="http://www.w3.org/2000/svg"  width="101.000000pt" height="101.000000pt" viewBox="0 0 101.000000 101.000000"  preserveAspectRatio="xMidYMid meet">  <g transform="translate(0.000000,101.000000) scale(0.050000,-0.050000)" fill="#ff9500" stroke="none"> <path d="M960 1919 c0 -12 11 -63 23 -115 l24 -93 34 100 c18 54 30 106 25 114 -13 23 -106 18 -106 -6z"/> <path d="M864 1795 c-19 -23 -13 -38 26 -75 56 -52 67 -23 23 56 -22 39 -30 42 -49 19z"/> <path d="M1109 1772 c-44 -68 -28 -84 33 -34 37 30 42 45 25 63 -18 18 -31 11 -58 -29z"/> <path d="M952 1655 c-16 -25 -40 -84 -54 -132 -35 -119 -173 -267 -345 -368 -244 -145 -361 -294 -324 -413 31 -96 90 -75 163 59 51 93 66 106 103 94 35 -12 -3 -251 -67 -417 -79 -205 -90 -338 -29 -338 52 0 130 117 183 275 52 158 64 154 147 -52 180 -448 307 -328 138 131 -125 337 -110 429 133 856 85 150 99 234 49 306 -39 56 -61 56 -97 -1z"/> <path d="M437 1535 c-158 -133 -10 -376 175 -288 118 56 141 183 50 275 -72 71 -151 75 -225 13z"/> <path d="M1358 1522 c-97 -98 -69 -228 61 -282 171 -71 314 150 183 282 -79 78 -165 78 -244 0z"/> <path d="M1101 1513 c-1 -20 -16 -68 -34 -106 l-33 -69 97 -188 c129 -253 131 -342 13 -685 -93 -273 -105 -365 -47 -365 59 0 123 87 193 263 82 205 96 210 148 52 53 -158 131 -275 183 -275 60 0 51 131 -24 325 -130 336 -106 587 31 334 64 -116 79 -128 132 -99 133 71 -10 285 -310 465 -140 84 -249 192 -307 305 -26 50 -42 66 -42 43z"/> </g> </svg> 