<?xml version="1.0" standalone="no"?>
<!DOCTYPE svg PUBLIC "-//W3C//DTD SVG 20010904//EN"
 "http://www.w3.org/TR/2001/REC-SVG-20010904/DTD/svg10.dtd">
<svg version="1.0" xmlns="http://www.w3.org/2000/svg"
 width="92.000000pt" height="91.000000pt" viewBox="0 0 92.000000 91.000000"
 preserveAspectRatio="xMidYMid meet">
<metadata>
Created by potrace 1.10, written by Peter Selinger 2001-2011
</metadata>
<g transform="translate(0.000000,91.000000) scale(0.100000,-0.100000)"
fill="#139bc9" stroke="none">
<path d="M415 886 c-34 -34 -45 -86 -45 -208 l0 -108 -39 -20 c-34 -17 -41
-18 -51 -5 -29 35 -80 7 -80 -44 0 -31 -34 -45 -64 -26 -34 23 -66 5 -66 -35
0 -23 -7 -33 -30 -45 -28 -15 -30 -19 -30 -75 0 -42 4 -60 13 -60 7 0 88 29
180 64 l167 63 0 -71 c0 -39 3 -87 6 -106 6 -35 5 -36 -71 -79 l-76 -44 3 -41
3 -41 45 3 c25 2 63 8 85 12 30 7 46 5 62 -5 28 -19 42 -19 62 -1 13 11 30 11
101 1 47 -7 88 -11 93 -8 4 2 7 21 7 42 0 38 -2 40 -76 82 -75 43 -76 44 -70
79 3 19 6 67 6 106 l0 71 167 -63 c92 -35 173 -64 180 -64 9 0 13 18 13 60 0
56 -2 60 -31 75 -17 9 -29 23 -28 33 3 32 -1 41 -22 52 -16 9 -26 8 -45 -5
-33 -21 -64 -5 -64 33 0 16 -5 33 -12 40 -17 17 -53 15 -68 -3 -10 -13 -17
-12 -51 5 l-39 20 0 108 c0 59 -5 124 -11 146 -13 46 -50 86 -79 86 -11 0 -32
-11 -45 -24z m67 -23 c33 -39 38 -84 37 -352 -1 -230 -4 -280 -23 -371 -29
-143 -43 -142 -74 5 -20 101 -22 133 -20 385 3 234 6 281 20 313 19 40 37 47
60 20z m-222 -342 c0 -12 -20 -25 -27 -18 -7 7 6 27 18 27 5 0 9 -4 9 -9z
m110 -45 l0 -53 -163 -62 c-90 -33 -166 -61 -168 -61 -3 0 -4 13 -1 29 3 26
21 38 160 114 87 47 160 86 165 86 4 1 7 -23 7 -53z m353 -34 c139 -75 155
-87 159 -113 3 -16 2 -29 -1 -29 -2 0 -78 28 -168 61 l-163 62 0 54 c0 30 4
53 9 51 5 -1 78 -41 164 -86z m-35 69 c3 -8 -1 -12 -9 -9 -7 2 -15 10 -17 17
-3 8 1 12 9 9 7 -2 15 -10 17 -17z m-563 -71 c-3 -5 -13 -10 -21 -10 -8 0 -12
5 -9 10 3 6 13 10 21 10 8 0 12 -4 9 -10z m700 0 c3 -5 -1 -10 -9 -10 -8 0
-18 5 -21 10 -3 6 1 10 9 10 8 0 18 -4 21 -10z m-425 -344 c9 -41 8 -41 -82
-52 -46 -5 -58 -3 -58 8 0 13 120 91 128 83 2 -2 7 -19 12 -39z m243 -20 c9
-6 17 -18 17 -27 0 -14 -7 -15 -52 -7 -87 14 -97 18 -93 31 2 6 6 25 10 40 l6
28 47 -27 c26 -15 55 -32 65 -38z"/>
<path d="M430 799 c-12 -22 -7 -49 10 -49 5 0 10 7 10 15 0 8 5 15 10 15 6 0
10 -7 10 -15 0 -19 19 -20 26 -1 8 22 -14 56 -36 56 -11 0 -24 -9 -30 -21z"/>
</g>
</svg>
